<?xml version="1.0"?>
<svg xmlns="http://www.w3.org/2000/svg" width="512" height="512" viewBox="0 0 512 512" fill="none">
<circle cx="256" cy="256" r="256" fill="white"/>
<path fill-rule="evenodd" clip-rule="evenodd" d="M256 512C397.385 512 512 397.385 512 256C512 114.615 397.385 0 256 0C114.615 0 0 114.615 0 256C0 354.636 55.7832 440.242 137.522 482.993L137.681 480L131.759 368H199.213C199.213 368 192.721 419.224 192.721 480C192.721 488.281 192.847 496.385 193.065 504.207C213.2 509.296 234.284 512 256 512ZM277.732 169.25C250.942 184.718 236.805 210.518 231.299 222.788L192.842 254.214C192.763 249.55 192.721 244.805 192.721 240C192.721 179.224 199.524 128 199.524 128H131.759C131.759 128 137.681 179.224 137.681 240C137.681 300.776 131.759 352 131.759 352H199.524C199.524 352 194.459 313.863 193.069 264.359L199.324 259.248C204.87 266.755 219.802 283.488 246.657 290.287C281.79 299.183 346.109 293.303 346.109 293.303C346.109 293.303 291.465 260.969 256.333 252.074C236.098 246.95 219.421 248.864 208.917 251.409L235.02 230.079C247.536 230.465 276.237 229.503 304.433 215.496C341.944 196.863 415.577 121.677 415.577 121.677C415.577 121.677 313.823 148.413 277.732 169.25Z" fill="#FF504D"/>
</svg>
